<svg xmlns="http://www.w3.org/2000/svg" viewBox="0 0 640 240"><path d="M294,99.24c0-11.72,6.61-19.1,16.94-19.1,8.39,0,14.72,5.15,15.69,12.87h-5.69a9.84,9.84,0,0,0-10-7.84c-6.71,0-11.07,5.51-11.07,14.07s4.31,14.1,11.1,14.1c5.15,0,8.82-2.64,10-7.1h5.72c-1.41,7.64-7.21,12.12-15.72,12.12C300.54,118.36,294,111,294,99.24Z"/><path d="M352.53,107.75h-14.1l-3.38,10h-6l13.35-37h6.2l13.36,37h-6.07Zm-12.64-4.61h11.18l-5.51-16.23h-.15Z"/><path d="M398.24,117.75V90.52h-.18l-11.15,27h-4.26L371.48,90.52h-.18v27.23h-5.23v-37h6.64l12,29.2h.2l11.95-29.2h6.67v37Z"/><path d="M424.19,80.76c7.17,0,12.17,4.94,12.17,12.15s-5.1,12.2-12.35,12.2h-7.95v12.64h-5.74v-37Zm-8.13,19.53h6.59c5,0,7.84-2.69,7.84-7.36s-2.84-7.33-7.82-7.33h-6.61Z"/><path d="M466.13,117.75V101.37h-19v16.38h-5.74v-37h5.74V96.39h19V80.76h5.74v37Z"/><path d="M512,99.27c0,11.76-6.69,19.09-17.33,19.09S477.33,111,477.33,99.27,484,80.14,494.66,80.14,512,87.5,512,99.27Zm-28.79,0c0,8.61,4.44,14,11.46,14s11.43-5.43,11.43-14-4.41-14.08-11.43-14.08S483.2,90.63,483.2,99.27Z"/><path d="M523.19,117.75h-5.74v-37h14.33c7.62,0,12.36,4.41,12.36,11.3,0,5-2.67,9-7.18,10.56l8.28,15.13h-6.61l-7.54-14.23h-7.9Zm0-18.87h8c4.44,0,7-2.43,7-6.66s-2.69-6.64-7.13-6.64h-7.9Z"/><path d="M549.24,105.57v-5h16.82v5Z"/><path d="M264.67,157.9H250.58l-3.39,10h-6l13.36-37h6.2l13.35,37h-6.07ZM252,153.29h11.17l-5.51-16.23h-.15Z"/><path d="M276.34,154.42c0-8.33,4.59-13.77,11.28-13.77a9.11,9.11,0,0,1,8.46,4.77h.1V130.91h5.57v37h-5.39v-4.59h-.1a9.2,9.2,0,0,1-8.59,4.87C280.93,168.18,276.34,162.75,276.34,154.42Zm5.67,0c0,5.54,2.82,9.07,7.12,9.07s7.1-3.59,7.1-9.07-2.84-9-7.1-9S282,148.93,282,154.42Z"/><path d="M320.77,167.9h-5.95l-9.71-27H311l6.77,21.56h.1l6.77-21.56h5.79Z"/><path d="M356.74,160c-.75,4.9-5.52,8.26-11.62,8.26-7.84,0-12.71-5.26-12.71-13.69s4.89-14,12.48-14S357,145.73,357,153.91v1.89H338v.34c0,4.61,2.89,7.64,7.25,7.64,3.08,0,5.49-1.47,6.23-3.8Zm-18.72-8h13.49c-.13-4.13-2.77-6.84-6.62-6.84S338.3,147.86,338,151.93Z"/><path d="M361.33,140.93h5.28v4.59h.12c1.62-3.23,4.34-4.89,8.49-4.89,5.95,0,9.36,3.82,9.36,10V167.9H379V151.7c0-4-1.87-6.3-5.76-6.3s-6.39,2.81-6.39,7V167.9h-5.53Z"/><path d="M397.09,134.55v6.38h5.13v4.39h-5.13v14.87c0,2.3,1,3.38,3.28,3.38a17.21,17.21,0,0,0,1.82-.13v4.36a15.57,15.57,0,0,1-3.08.26c-5.46,0-7.58-2.05-7.58-7.28V145.32H387.6v-4.39h3.93v-6.38Z"/><path d="M416.73,149.39c0-11.71,6.61-19.09,16.94-19.09,8.38,0,14.71,5.15,15.69,12.87h-5.69a9.84,9.84,0,0,0-10-7.85c-6.72,0-11.07,5.51-11.07,14.07s4.3,14.1,11.1,14.1c5.15,0,8.81-2.64,10-7.1h5.71c-1.41,7.64-7.2,12.13-15.71,12.13C423.29,168.52,416.73,161.19,416.73,149.39Z"/><path d="M452.72,160.19c0-4.72,3.61-7.49,10.33-7.9l7.18-.41v-2c0-3.05-2-4.69-5.54-4.69-2.9,0-5,1.49-5.46,3.79h-5.18c.16-4.82,4.67-8.33,10.8-8.33,6.61,0,10.89,3.46,10.89,8.82V167.9h-5.31v-4.43h-.12a9.63,9.63,0,0,1-8.52,4.82C456.44,168.29,452.72,165,452.72,160.19Zm17.51-2.39v-2.07l-6.46.41c-3.59.2-5.49,1.59-5.49,3.92s2,3.84,5.05,3.84C467.25,163.9,470.23,161.29,470.23,157.8Z"/><path d="M481.3,130.91h5.54v37H481.3Z"/><path d="M515.66,160c-.75,4.9-5.52,8.26-11.62,8.26-7.84,0-12.71-5.26-12.71-13.69s4.89-14,12.48-14S516,145.73,516,153.91v1.89h-19v.34c0,4.61,2.89,7.64,7.25,7.64,3.08,0,5.49-1.47,6.23-3.8Zm-18.72-8h13.49c-.13-4.13-2.77-6.84-6.62-6.84S497.22,147.86,496.94,151.93Z"/><path d="M520.25,140.93h5.28v4.59h.12c1.62-3.23,4.34-4.89,8.49-4.89,6,0,9.36,3.82,9.36,10V167.9h-5.57V151.7c0-4-1.87-6.3-5.76-6.3s-6.39,2.81-6.39,7V167.9h-5.53Z"/><path d="M547.63,154.42c0-8.33,4.58-13.77,11.28-13.77a9.11,9.11,0,0,1,8.46,4.77h.1V130.91H573v37h-5.38v-4.59h-.11a9.17,9.17,0,0,1-8.58,4.87C552.21,168.18,547.63,162.75,547.63,154.42Zm5.66,0c0,5.54,2.82,9.07,7.13,9.07s7.1-3.59,7.1-9.07-2.85-9-7.1-9S553.29,148.93,553.29,154.42Z"/><path d="M577.52,160.19c0-4.72,3.61-7.49,10.33-7.9l7.18-.41v-2c0-3.05-2-4.69-5.54-4.69-2.9,0-5,1.49-5.46,3.79h-5.18c.15-4.82,4.67-8.33,10.79-8.33,6.62,0,10.9,3.46,10.9,8.82V167.9h-5.31v-4.43h-.13a9.61,9.61,0,0,1-8.51,4.82C581.23,168.29,577.52,165,577.52,160.19ZM595,157.8v-2.07l-6.46.41c-3.59.2-5.49,1.59-5.49,3.92s2,3.84,5,3.84C592.05,163.9,595,161.29,595,157.8Z"/><path d="M605.9,140.93h5.28v4.59h.13a6.42,6.42,0,0,1,6.48-4.87,8.06,8.06,0,0,1,1.9.21V146a7.74,7.74,0,0,0-2.49-.34c-3.56,0-5.77,2.41-5.77,6.21v16H605.9Z"/><path d="M276.91,55.16a.37.37,0,0,0-.31-.16h-.05C238.91,60,211.42,78.59,195,93.37A156.83,156.83,0,0,0,168.31,124a.56.56,0,0,1-.4.25c-6.62.9-21.11,1.39-21.26,1.39s-14.62-.51-21.26-1.39A.52.52,0,0,1,125,124,156.88,156.88,0,0,0,98.32,93.37C81.88,78.63,54.37,60,16.72,55h0a.38.38,0,0,0-.31.16.39.39,0,0,0,0,.39c2,3.45,9.74,15.76,24.73,29.3,15.8,14.25,43.1,32.73,83.49,39.78a.56.56,0,0,1,.38.27,191.11,191.11,0,0,1,11,21.95c5.82,13.74,9.32,26.48,10.41,37.78a.37.37,0,0,0,.74,0c1.1-11.33,4.61-24.06,10.41-37.78a191.11,191.11,0,0,1,11-21.95.56.56,0,0,1,.38-.27c40.38-7,67.65-25.53,83.48-39.78C267.29,71.31,275,59,277,55.55A.35.35,0,0,0,276.91,55.16Z" style="fill:#f00a32"/></svg>
