<svg xmlns="http://www.w3.org/2000/svg" viewBox="0 0 486 330"><path d="M459.43,57.27a.62.62,0,0,0-.51-.27h-.09c-62.55,8.32-108.25,39.2-135.57,63.77a260.66,260.66,0,0,0-44.33,50.84.91.91,0,0,1-.66.41c-11,1.51-35.09,2.31-35.33,2.31s-24.31-.84-35.34-2.31a.89.89,0,0,1-.65-.41,261.17,261.17,0,0,0-44.33-50.84C135.29,96.28,89.57,65.32,27,57h-.09a.63.63,0,0,0-.51.27.62.62,0,0,0,0,.65c3.33,5.73,16.18,26.18,41.1,48.69C93.76,130.3,139.12,161,206.26,172.73a.92.92,0,0,1,.63.44,315.3,315.3,0,0,1,18.21,36.49c9.67,22.83,15.49,44,17.31,62.79a.61.61,0,0,0,1.22,0c1.84-18.83,7.66-40,17.31-62.79a318.7,318.7,0,0,1,18.21-36.49.93.93,0,0,1,.63-.44C346.9,161,392.22,130.3,418.52,106.61c24.92-22.51,37.7-43,41.1-48.69A.57.57,0,0,0,459.43,57.27Z" style="fill:#f00a32;fill-rule:evenodd"/></svg>
